PathFileType	4	(X/Y/Z)	/Users/itak/Documents/Research/Walk-IL/dataset/trc/00434_00167.trc
DataRate	CameraRate	NumFrames	NumMarkers	Units	OrigDataRate	OrigDataStartFrame	OrigNumFrames
100.000000	100.000000	4	53	mm	100.000000	271	724
Frame#	Time	RPSI			LPSI			L3			STRN			T10			C7			CLAV			RBAK			LBAK			LSHO			LUPA			LAEL			LAOL			LWTS			LWPS			LFRA			LIFD			LHPS			LHTS			RSHO			RUPA			RAEL			RAOL			RWTS			RWPS			RFRA			RIFD			RHTS			RHPS			RBHD			LFHD			RFHD			LBHD			LHIP			RHIP			RASI			LASI			LKNE			LTHI			LANK			LTIP			LTOE			LMT1			LMT5			LHEE			RKNE			RTHI			RANK			RTIP			RTOE			RMT1			RMT5			RHEE			
		X1	Y1	Z1	X2	Y2	Z2	X3	Y3	Z3	X4	Y4	Z4	X5	Y5	Z5	X6	Y6	Z6	X7	Y7	Z7	X8	Y8	Z8	X9	Y9	Z9	X10	Y10	Z10	X11	Y11	Z11	X12	Y12	Z12	X13	Y13	Z13	X14	Y14	Z14	X15	Y15	Z15	X16	Y16	Z16	X17	Y17	Z17	X18	Y18	Z18	X19	Y19	Z19	X20	Y20	Z20	X21	Y21	Z21	X22	Y22	Z22	X23	Y23	Z23	X24	Y24	Z24	X25	Y25	Z25	X26	Y26	Z26	X27	Y27	Z27	X28	Y28	Z28	X29	Y29	Z29	X30	Y30	Z30	X31	Y31	Z31	X32	Y32	Z32	X33	Y33	Z33	X34	Y34	Z34	X35	Y35	Z35	X36	Y36	Z36	X37	Y37	Z37	X38	Y38	Z38	X39	Y39	Z39	X40	Y40	Z40	X41	Y41	Z41	X42	Y42	Z42	X43	Y43	Z43	X44	Y44	Z44	X45	Y45	Z45	X46	Y46	Z46	X47	Y47	Z47	X48	Y48	Z48	X49	Y49	Z49	X50	Y50	Z50	X51	Y51	Z51	X52	Y52	Z52	X53	Y53	Z53	

272	2.71	-818.3396606445312	962.2723999023438	-172.8593139648438	-753.5149536132812	965.6281127929688	-298.7886962890625	-777.8988647460938	1061.361206054688	-216.9231414794922	-532.3346557617188	1232.873168945312	-74.50553131103516	-787.6849365234375	1185.843017578125	-222.2321014404297	-726.3858032226562	1445.948120117188	-156.2946319580078	-560.93408203125	1349.073364257812	-83.13304901123047	-832.2049560546875	1322.911376953125	-118.7898712158203	-704.8042602539062	1411.281127929688	-262.2039794921875	-573.7964477539062	1428.230712890625	-273.9814453125	-535.1690673828125	1319.65380859375	-376.2825012207031	-501.3603210449219	1109.1875	-417.9313354492188	-603.25341796875	1090.943237304688	-405.8115539550781	-443.8016967773438	907.5298461914062	-346.4134216308594	-451.746826171875	894.3374633789062	-419.0033264160156	-473.8757629394531	1023.699401855469	-419.58251953125	-433.8790283203125	738.434814453125	-353.9566345214844	-443.8527526855469	812.9605712890625	-417.0433349609375	-423.1412658691406	817.8009033203125	-349.1743469238281	-748.5740966796875	1398.406494140625	12.64340686798096	-805.7041625976562	1335.78125	63.50302886962891	-844.6934204101562	1050.517333984375	102.526481628418	-866.4508666992188	1029.398803710938	41.15180206298828	-703.6270751953125	872.7662963867188	127.2777938842773	-785.3375854492188	842.345458984375	141.5492858886719	-838.1251220703125	992.7512817382812	114.6148834228516	-675.6569213867188	716.5943603515625	142.2989349365234	-678.7152709960938	776.98583984375	150.4812622070312	-752.6279907226562	760.244873046875	152.4042816162109	-662.0943603515625	1628.32470703125	-3.544765710830688	-468.6001281738281	1613.875122070312	-76.38510131835938	-531.7493286132812	1606.4677734375	37.78257369995117	-587.59765625	1648.055419921875	-165.5607299804688	-594.71435546875	851.333251953125	-354.3021545410156	-769.4844970703125	854.0507202148438	5.883471965789795	-650.8255615234375	895.7080078125	-10.8449878692627	-531.3077392578125	882.3135375976562	-237.9785308837891	-658.807373046875	436.6734313964844	-386.7452697753906	-598.3594360351562	582.4752807617188	-363.2649536132812	-957.2505493164062	165.1055755615234	-539.0055541992188	-751.9249877929688	321.5420532226562	-449.8348693847656	-876.2762451171875	37.41590881347656	-387.0076293945312	-923.3159790039062	75.59831237792969	-394.2483520507812	-875.6232299804688	55.43162155151367	-492.5392150878906	-1001.082763671875	217.0797882080078	-514.0799560546875	-673.0645141601562	461.7919616699219	-7.20809268951416	-716.3814086914062	722.1741333007812	33.66171646118164	-648.634765625	41.12752532958984	-31.79425239562988	-658.1157836914062	314.968017578125	1.989436745643616	-436.795654296875	47.95457077026367	19.5871639251709	-477.2900695800781	52.75090408325195	-38.18483352661133	-540.4002075195312	47.37834548950195	49.22278213500977	-687.7484741210938	32.8679313659668	-102.8377914428711	
273	2.72	-814.2012329101562	962.912353515625	-168.4666748046875	-749.5750732421875	965.477783203125	-294.541259765625	-773.6797485351562	1061.96826171875	-212.2443389892578	-528.0048217773438	1233.460205078125	-70.12825012207031	-783.3693237304688	1186.448974609375	-217.6563415527344	-721.9830932617188	1446.615966796875	-152.1726379394531	-556.556884765625	1349.694580078125	-78.825439453125	-827.8348999023438	1323.717651367188	-114.4022979736328	-700.372802734375	1411.822265625	-258.0857543945312	-569.337890625	1428.74609375	-269.687255859375	-530.2478637695312	1320.1220703125	-371.6882629394531	-495.4345397949219	1110.086181640625	-413.2427062988281	-597.099853515625	1090.9580078125	-400.8239135742188	-434.9571533203125	909.8829956054688	-340.7581481933594	-443.4930419921875	895.9088134765625	-413.1300354003906	-466.9740600585938	1024.992431640625	-414.4754638671875	-422.2644653320312	740.9240112304688	-347.1220397949219	-434.2919006347656	814.7483520507812	-410.6276245117188	-412.7752685546875	820.5263061523438	-343.0536804199219	-744.0703735351562	1399.492431640625	16.82182121276855	-801.0924072265625	1336.984619140625	68.01131439208984	-839.2321166992188	1051.821899414062	108.3034591674805	-861.0288696289062	1030.297119140625	47.0694694519043	-697.51953125	874.7598876953125	133.9533538818359	-779.1397094726562	844.1387329101562	148.3801574707031	-832.4402465820312	994.15478515625	120.6838684082031	-669.0681762695312	718.7682495117188	149.9591979980469	-672.3236083984375	779.2103881835938	157.7880249023438	-746.195556640625	762.2266235351562	159.7895355224609	-658.0250244140625	1629.411499023438	0.1840622872114182	-464.501220703125	1615.054565429688	-72.59273529052734	-527.6414794921875	1607.86865234375	41.58752059936523	-583.5086059570312	1648.593872070312	-161.9020538330078	-589.8818359375	851.11474609375	-349.1810607910156	-765.7933349609375	854.4376220703125	10.01071548461914	-647.0728149414062	895.8716430664062	-6.333177089691162	-526.9186401367188	882.9066772460938	-233.1418914794922	-646.3484497070312	435.3299255371094	-380.056640625	-587.9442138671875	581.8934326171875	-357.0743103027344	-950.0966796875	172.0665283203125	-534.9400024414062	-741.5990600585938	322.0499572753906	-443.9124450683594	-872.8425903320312	36.28926467895508	-385.976318359375	-918.6112060546875	78.62057495117188	-391.8277893066406	-871.9027099609375	58.51871871948242	-490.5232238769531	-992.7434692382812	224.5061187744141	-509.1390991210938	-671.950439453125	461.6311950683594	-5.221995830535889	-713.393310546875	722.16357421875	37.08291625976562	-648.6448364257812	41.09730911254883	-31.80400466918945	-657.4097900390625	314.7062377929688	3.210428714752197	-436.7945861816406	47.93654251098633	19.60579109191895	-477.3112487792969	52.72685623168945	-38.16329956054688	-540.4072265625	47.35267639160156	49.28437805175781	-687.7669677734375	32.86013031005859	-102.8396682739258	
274	2.73	-810.1517944335938	963.4606323242188	-164.2249145507812	-745.7144775390625	965.1592407226562	-290.41259765625	-769.5711059570312	1062.497924804688	-207.6679077148438	-523.7413940429688	1234.010009765625	-65.95484161376953	-779.2000122070312	1186.990600585938	-213.1859283447266	-717.6896362304688	1447.2265625	-148.2022247314453	-552.268798828125	1350.276489257812	-74.72977447509766	-823.560302734375	1324.477783203125	-110.0748291015625	-696.0973510742188	1412.288818359375	-254.1238250732422	-565.0413818359375	1429.193359375	-265.6073608398438	-525.4947509765625	1320.513671875	-367.30029296875	-489.6263427734375	1110.914428710938	-408.7071533203125	-591.0538330078125	1090.872924804688	-396.0307312011719	-426.2665405273438	912.2634887695312	-335.1616821289062	-435.2682495117188	897.4479370117188	-407.302001953125	-460.1461181640625	1026.2119140625	-409.469970703125	-410.8022766113281	743.4917602539062	-340.1227111816406	-424.759033203125	816.5235595703125	-404.1575927734375	-402.5473937988281	823.3212890625	-336.8766479492188	-739.586669921875	1400.538452148438	20.88036155700684	-796.466064453125	1338.1640625	72.44211578369141	-833.7974853515625	1053.11181640625	114.0562973022461	-855.6544799804688	1031.203247070312	52.96349334716797	-691.582275390625	876.6007080078125	140.5091400146484	-773.1419067382812	845.8604125976562	155.1302490234375	-826.82373046875	995.5375366210938	126.718994140625	-662.8136596679688	720.7612915039062	157.4241943359375	-666.1927490234375	781.2511596679688	164.9264221191406	-740.0411376953125	764.1054077148438	167.0454711914062	-654.0726928710938	1630.412841796875	3.660518884658813	-460.4908752441406	1616.187377929688	-68.98448181152344	-523.6482543945312	1609.224853515625	45.20165634155273	-579.5114135742188	1649.077758789062	-158.4375152587891	-584.9983520507812	850.8311767578125	-344.1209411621094	-762.2205810546875	854.8016967773438	14.01133728027344	-643.4268188476562	896.0342407226562	-1.884374380111694	-522.5849609375	883.4618530273438	-228.3652648925781	-633.6617431640625	434.03076171875	-373.0089721679688	-577.344970703125	581.3247680664062	-350.6369934082031	-942.4739379882812	178.9950561523438	-530.4411010742188	-730.9697265625	322.5919189453125	-437.6103515625	-868.4328002929688	35.30685424804688	-384.7363891601562	-913.046875	81.85890197753906	-388.9864807128906	-867.4513549804688	62.05144119262695	-488.17822265625	-984.0540161132812	231.7837219238281	-503.7311401367188	-670.8807983398438	461.4770202636719	-3.257799863815308	-710.5648803710938	722.1140747070312	40.42277908325195	-648.6600952148438	41.06300354003906	-31.80741310119629	-656.7098388671875	314.4538269042969	4.415715217590332	-436.7999877929688	47.91793823242188	19.6416072845459	-477.3377685546875	52.70990753173828	-38.13198089599609	-540.42041015625	47.31611251831055	49.36641311645508	-687.7857666015625	32.85615921020508	-102.8366088867188	
275	2.74	-806.1664428710938	963.9219970703125	-160.1636199951172	-741.8667602539062	964.70703125	-286.4113159179688	-765.5489501953125	1062.953125	-203.2183074951172	-519.5438232421875	1234.536987304688	-61.97165679931641	-775.16552734375	1187.467895507812	-208.835693359375	-713.5067138671875	1447.781494140625	-144.3775482177734	-548.0689086914062	1350.828491210938	-70.84477996826172	-819.377685546875	1325.189331054688	-105.8104934692383	-691.9837036132812	1412.681030273438	-250.3142547607422	-560.923828125	1429.576293945312	-261.7450866699219	-520.9347534179688	1320.832885742188	-363.1272277832031	-483.9427490234375	1111.677490234375	-404.3190307617188	-585.0870971679688	1090.678833007812	-391.4347839355469	-417.7765808105469	914.6617431640625	-329.6040954589844	-427.0672302246094	898.9708251953125	-401.5110168457031	-453.4134521484375	1027.357788085938	-404.558349609375	-399.5280151367188	746.1422729492188	-332.9698486328125	-415.2476806640625	818.305908203125	-397.6364135742188	-392.518310546875	826.17724609375	-330.632568359375	-735.1253051757812	1401.53857421875	24.82580375671387	-791.82470703125	1339.310180664062	76.79366302490234	-828.4015502929688	1054.3828125	119.7730255126953	-850.3460083007812	1032.11279296875	58.82792663574219	-685.818603515625	878.2938842773438	146.929931640625	-767.341552734375	847.506103515625	161.7827606201172	-821.2869873046875	996.89404296875	132.7074584960938	-656.8705444335938	722.5816040039062	164.6874847412109	-660.3069458007812	783.1157836914062	171.8867645263672	-734.1439208984375	765.8790893554688	174.1580963134766	-650.2317504882812	1631.315795898438	6.880616188049316	-456.5657348632812	1617.272338867188	-65.55450439453125	-519.763671875	1610.536499023438	48.63068389892578	-575.6087036132812	1649.5166015625	-155.1661834716797	-580.0237426757812	850.5040893554688	-339.125732421875	-758.7626342773438	855.136962890625	17.87878608703613	-639.8984375	896.20068359375	2.506446599960327	-518.28564453125	883.9940795898438	-223.6185607910156	-620.8431396484375	432.8420104980469	-365.6557922363281	-566.6256103515625	580.8146362304688	-343.9732360839844	-934.4131469726562	185.7685852050781	-525.50537109375	-720.1031494140625	323.2184753417969	-430.9919128417969	-862.8388671875	34.6245002746582	-383.2362670898438	-906.5011596679688	85.23150634765625	-385.7132263183594	-862.1021118164062	65.99179840087891	-485.4736022949219	-975.0775756835938	238.7627410888672	-497.8699035644531	-669.8265380859375	461.3307495117188	-1.318791508674622	-707.8640747070312	722.0347290039062	43.67502593994141	-648.6790771484375	41.02752304077148	-31.80511093139648	-656.0021362304688	314.2137145996094	5.60090446472168	-436.8156127929688	47.8986930847168	19.69620323181152	-477.3665771484375	52.69715118408203	-38.09054565429688	-540.4437866210938	47.27189636230469	49.46524047851562	-687.804931640625	32.85737609863281	-102.828239440918	
